<svg width="800" height="600" xmlns="http://www.w3.org/2000/svg">

 <g>
  <title>Layer 1</title>
  <path id="svg_1" d="m377.59706,487.36515c-27.01154,-20.345 -46.37252,-84.99084 -41.97255,-140.14545c2.77449,-34.77917 61.30925,-245.91296 66.42118,-239.58014c1.66847,2.06694 16.51575,51.29109 32.99396,109.38701c26.39636,93.06354 29.96037,110.41702 29.96037,145.87983c0,71.88166 -28.69991,130.76088 -63.16009,129.57599c-10.05597,-0.34582 -20.96527,-2.64857 -24.24288,-5.11723l0,-0.00001zm27.06251,-36.15383c0.89409,-9.30612 -1.19446,-13.84468 -6.37112,-13.84468c-11.79814,0 -28.16408,-29.95214 -31.82048,-58.23624c-3.90039,-30.17146 -14.24204,-33.75974 -15.76956,-5.47161c-2.94298,54.50112 49.00313,129.15755 53.96116,77.55253l0.00001,0z" stroke="#000" fill="#3f82ba"/>
 </g>
</svg>