<svg xmlns="http://www.w3.org/2000/svg" xmlns:se="http://svg-edit.googlecode.com" xmlns:xlink="http://www.w3.org/1999/xlink" xmlns:dc="http://purl.org/dc/elements/1.1/" xmlns:cc="http://creativecommons.org/ns#" xmlns:rdf="http://www.w3.org/1999/02/22-rdf-syntax-ns#" xmlns:inkscape="http://www.inkscape.org/namespaces/inkscape" width="777" height="480" style="">                                    <title>my vector image</title>                                    <!-- Created with Vector Paint - http://www.vectorpaint.yaks.com/ https://chrome.google.com/webstore/detail/hnbpdiengicdefcjecjbnjnoifekhgdo -->                                    <rect id="backgroundrect" width="100%" height="100%" x="0" y="0" fill="#FFFFFF" stroke="none"/>                                <g class="currentLayer" style=""><title>Layer 1</title><path fill="#04b8b8" stroke="#dadada" stroke-width="2" stroke-linejoin="round" stroke-dashoffset="" fill-rule="nonzero" marker-start="" marker-mid="" marker-end="" id="svg_1" d="M366.9586923223294,408.16020271062064 C340.9860586818909,389.9005700348567 322.36973549163486,331.8809450991164 326.60047777999216,282.3796992170163 C329.26825670952655,251.16540570887395 385.55167229241283,61.67287926735399 390.46699655024554,67.35659095719393 C392.0712927401361,69.21167017577469 406.3475264813674,113.39032867665179 422.19195973280176,165.53140690304855 C447.5730751846681,249.05591324667432 451.0000033299445,264.63065111237364 451.0000033299445,296.45851589473256 C451.0000033299445,360.97228292376474 423.40394021928597,413.8163749417905 390.26914792238694,412.7529308220179 C380.59994843701156,412.4425596190973 370.11023723499545,410.3758394870905 366.9586923223294,408.16021427696387 L366.9586923223294,408.16020271062064 zM392.98033683396574,375.712150706804 C393.8400424107743,367.3599105798605 391.83181454535963,363.2865574589889 386.85425612503997,363.2865574589889 C375.5098900376411,363.2865574589889 359.77341299758086,336.40451805576964 356.25764337529404,311.01954490832304 C352.50727315376685,283.9406695085608 342.56337045544245,280.7201836974387 341.09460218294646,306.1087771097194 C338.26481784341115,355.02351695628215 388.21299103523216,422.02764450076 392.98033065197006,375.712150706804 L392.98033683396574,375.712150706804 z" style="color: rgb(0, 0, 0);" class="selected" fill-opacity="1" stroke-opacity="1"/></g></svg>