<svg xmlns="http://www.w3.org/2000/svg" xmlns:xlink="http://www.w3.org/1999/xlink" version="1.1" width="275.7850036621094" height="275.7850036621094" style="" xml:space="preserve"><rect id="backgroundrect" width="100%" height="100%" x="0" y="0" fill="none" stroke="none"/>
















<g class="currentLayer" style=""><title>Layer 1</title><g id="svg_1" class="selected" fill="#04b8b8" fill-opacity="1">
	<g id="svg_2" fill="#04b8b8" fill-opacity="1">
		<path d="M137.8927420491646,271.2688707733154 c25.842750111520292,0 46.87025525271893,-42.026965427398686 46.87025525271893,-93.68869731330872 c0,-50.59485633087158 -43.92653033316135,-165.42374596595764 -45.79611499607563,-170.2851390209198 L137.8927420491646,4.516128301620483 l-1.0741402566432954,2.7972838668823248 c-1.8671654281020165,4.85365506362915 -45.79659884303808,119.69124993896484 -45.79659884303808,170.27643378067017 C91.02200294948321,229.24190534591676 112.0490242437194,271.2688707733154 137.8927420491646,271.2688707733154 zM137.8927420491646,13.437065059661865 c6.8594983866810795,18.276168279647827 44.15926072210073,119.6409529953003 44.15926072210073,164.14310840034483 c0,48.66229299545288 -19.814500806331633,88.2662998867035 -44.15926072210073,88.2662998867035 c-24.349114538431166,0 -44.159744569063186,-39.60400689125061 -44.159744569063186,-88.2662998867035 C93.7329974801014,133.07801805496214 131.03130827463372,31.713233339309696 137.8927420491646,13.437065059661865 z" id="svg_3" fill="#04b8b8" fill-opacity="1"/>
	</g>
</g><g id="svg_4">
</g><g id="svg_5">
</g><g id="svg_6">
</g><g id="svg_7">
</g><g id="svg_8">
</g><g id="svg_9">
</g><g id="svg_10">
</g><g id="svg_11">
</g><g id="svg_12">
</g><g id="svg_13">
</g><g id="svg_14">
</g><g id="svg_15">
</g><g id="svg_16">
</g><g id="svg_17">
</g><g id="svg_18">
</g></g></svg>