<svg xmlns="http://www.w3.org/2000/svg" xmlns:se="http://svg-edit.googlecode.com" xmlns:xlink="http://www.w3.org/1999/xlink" xmlns:dc="http://purl.org/dc/elements/1.1/" xmlns:cc="http://creativecommons.org/ns#" xmlns:rdf="http://www.w3.org/1999/02/22-rdf-syntax-ns#" xmlns:inkscape="http://www.inkscape.org/namespaces/inkscape" width="777" height="480" style="">                                    <title>my vector image</title>                                    <!-- Created with Vector Paint - http://www.vectorpaint.yaks.com/ https://chrome.google.com/webstore/detail/hnbpdiengicdefcjecjbnjnoifekhgdo -->                                    <rect id="backgroundrect" width="100%" height="100%" x="0" y="0" fill="#FFFFFF" stroke="none"/>                                <g class="currentLayer" style=""><title>Layer 1</title><path fill="#e98a8a" stroke="#dadada" stroke-width="2" stroke-linejoin="round" stroke-dashoffset="" fill-rule="nonzero" marker-start="" marker-mid="" marker-end="" id="svg_1" d="M366.95870758111846,408.1602179694097 C340.98607394067994,389.90058529364575 322.3697507504239,331.88096035790545 326.6004930387812,282.3797144758054 C329.2682719683156,251.165420967663 385.5516875512019,61.672894526143054 390.4670118090346,67.35660621598299 C392.07130799892514,69.21168543456375 406.3475417401565,113.39034393544085 422.1919749915908,165.5314221618376 C447.57309044345715,249.05592850546338 451.00001858873355,264.6306663711627 451.00001858873355,296.4585311535216 C451.00001858873355,360.9722981825538 423.40395547807503,413.8163902005796 390.269163181176,412.75294608080696 C380.5999636958006,412.4425748778864 370.1102524937845,410.37585474587956 366.95870758111846,408.16022953575293 L366.95870758111846,408.1602179694097 zM392.9803520927548,375.71216596559304 C393.84005766956335,367.3599258386496 391.8318298041487,363.286572717778 386.85427138382903,363.286572717778 C375.5099052964302,363.286572717778 359.7734282563699,336.4045333145587 356.2576586340831,311.0195601671121 C352.5072884125559,283.94068476734986 342.5633857142315,280.72019895622776 341.0946174417355,306.1087923685085 C338.2648331022002,355.0235322150712 388.2130062940212,422.02765975954907 392.9803459107591,375.71216596559304 L392.9803520927548,375.71216596559304 z" style="color: rgb(0, 0, 0);" class="selected" fill-opacity="1" stroke-opacity="1"/></g></svg>